<svg xmlns="http://www.w3.org/2000/svg" xmlns:xlink="http://www.w3.org/1999/xlink" width="108" height="32" viewBox="0 0 108 32"><defs><path id="a" d="M0 0L107.667 0 107.667 31.388 0 31.388z"/></defs><g fill="none" fill-rule="evenodd"><mask id="b" fill="#fff"><use xlink:href="#a"/></mask><path fill="#0073AE" d="M21.356 28.931h-.227v-.287h.18c.096 0 .228.01.228.132 0 .132-.067.155-.181.155zm.45-.128c0-.272-.18-.358-.487-.358h-.443v1.188h.253v-.5h.12l.275.5h.303l-.307-.52c.16-.015.287-.093.287-.31zm-.493 1.086v-.003c-.437.003-.791-.338-.791-.848 0-.507.354-.845.79-.845.428 0 .793.338.793.845 0 .51-.365.851-.792.851zm0-1.954c-.587 0-1.108.406-1.108 1.103 0 .698.52 1.106 1.108 1.106.583 0 1.106-.408 1.106-1.106 0-.697-.523-1.103-1.106-1.103zm-1.142-10.44c-3.063.955-6.917.912-9.821-.366-.527-.256-1.19-.65-1.364-1.262-.133-1.12 1.072-1.743 1.89-2.154.48-.21.97-.443 1.502-.472.496.364 1.014.656 1.526.984-.993.264-2.183.49-2.641 1.577.079.823 1.014 1.086 1.662 1.29 2.343.622 4.874.541 7.122-.277.422-.25 1.093-.548 1.034-1.16-.07-.656-.822-.947-1.35-1.154a5.645 5.645 0 0 0-.926.213c-.16-.454-.298-.913-.49-1.35.996.262 1.987.533 3.018.714v.022a2.8 2.8 0 0 0-.652.176v.037c.585.293 1.394.774 1.402 1.54-.138.928-1.154 1.35-1.912 1.641zm-5.378 5.851c.125-1.684.147-3.24.234-4.916.59.056 1.1.033 1.642.014l.037.224.21 4.693c-.707.101-1.458.043-2.123-.015zm.758-15.25l.293-.932h.036a202.324 202.324 0 0 0 1.862 5.113l-1.285.024-.028.151.19 4.59v.072c-.476.08-1.057.06-1.526.015l-.037-.052.212-4.728v-.036c-.36-.036-.81 0-1.174-.036l1.457-4.182zM20.54 8l-.147-.087-.063-.058a31.455 31.455 0 0 0-2.674-2.276c-.48-.405-1.616-1.232-2.411-.615l-.022.017a39.305 39.305 0 0 0-2.876 2.251c-.06.045-.137.125-.137.125l-.08.08c-2.596 2.315-4.62 4.41-6.186 6.405.006-.006-.118.154-.118.154-.423.546-.81 1.064-.971 1.622.006.276.048.494.149.638 1.352 2.014 3.194 4.105 5.487 6.231l.953.865c1.42 1.301 2.765 2.527 4.31 3.335.33.153.85-.126 1.224-.389 2.86-2.015 5.404-4.618 7.303-6.66l.698-.83c.828-.97 1.613-1.883 2.037-2.936a.48.48 0 0 0 .01-.109c0-.182-.097-.428-.337-.798-1.657-2.369-3.733-4.718-6.15-6.965zm7.117 8.128c-.598 1.487-1.813 2.68-2.87 3.977-2.29 2.465-4.706 4.851-7.412 6.758-.548.385-1.284.742-1.94.437-1.993-1.043-3.67-2.752-5.416-4.306-2.02-1.874-4.048-4.058-5.581-6.34-.226-.32-.292-.716-.285-1.139.199-.787.739-1.438 1.248-2.1C7.21 11.11 9.43 8.92 11.67 6.922c.05-.053.144-.162.226-.212a39.656 39.656 0 0 1 2.925-2.29c1.054-.819 2.37-.14 3.255.611A31.556 31.556 0 0 1 20.81 7.36l.154.088c2.343 2.174 4.519 4.59 6.305 7.143.292.446.548.948.388 1.54zm3.53-1.4l-.088-.015a52.775 52.775 0 0 1-7.564-6.253l-2.613-2.729c-1.06-1.176-2.086-2.473-3.066-3.712L16.669.333c-.147-.088-.33-.234-.49-.277-.35-.153-.728.03-1.014.247l-2.153 2.803C9.562 7.383 5.475 11.372 1.018 14.43c-.35.28-.876.548-.984 1-.118.408.094.745.35 1.001 3.566 2.457 6.982 5.375 10.015 8.704.54.568.98 1.13 1.506 1.663.889 1.182 1.933 2.371 2.75 3.64.254.27.299.707.7.84.314.11.7.183 1 0l.297-.302c3.695-5.23 8.378-9.928 13.609-13.722.527-.468 1.527-.64 1.54-1.51a1.38 1.38 0 0 0-.613-1.014zm76.48-5.967v-4.61H89.554v23.78h18.115v-4.613H96.14v-5.038h10.606V13.67H96.14V8.762h11.527zm-39.915 19.17h18.114v-4.613H74.339v-5.038h10.605V13.67H74.339V8.762h11.527v-4.61H67.752v23.78zm-21.803 0h18.115v-4.613h-11.53v-5.038H63.14V13.67H52.534V8.762h11.53v-4.61H45.949v23.78zm-10.044 0h6.588V4.151h-6.588v23.78z" mask="url(#b)"/></g></svg>